<svg id="Слой_1" data-name="Слой 1" xmlns="http://www.w3.org/2000/svg" viewBox="0 0 78 78"><defs><style>.cls-1{fill:#787878;}.cls-1,.cls-2{fill-rule:evenodd;}.cls-2{fill:#fff;}</style></defs><title>1</title><path class="cls-1" d="M39,0A39,39,0,1,1,0,39,39,39,0,0,1,39,0"/><path class="cls-2" d="M42.87,46.31a15.26,15.26,0,0,1-30.51,0V46h7.78v.31a7.48,7.48,0,0,0,15,0c0-4.23-2.64-6.43-6.53-7.46L25.17,38c-3-1-5.23-1.61-7.24-4.23a10.69,10.69,0,0,1,8.48-17.2H37.16V24.3H26.41a2.92,2.92,0,0,0-2.92,2.92c0,2.24,2,2.77,3.78,3.25l2.65.71c7.57,2,12.95,6.84,12.95,15.13"/><path class="cls-2" d="M65.63,53.37a16.34,16.34,0,1,1-6-22.3h0a16.33,16.33,0,0,1,6,6L58.87,41a8.57,8.57,0,0,0-3.11-3.13h0a8.52,8.52,0,1,0-4.25,15.9,8.53,8.53,0,0,0,7.38-4.24Z"/><polygon class="cls-2" points="58.09 14.7 47.94 25 42.68 19.75 52.84 9.44 58.09 14.7"/></svg>